<?xml version="1.0" encoding="utf-8"?>
<!-- Generator: Adobe Illustrator 16.0.0, SVG Export Plug-In . SVG Version: 6.00 Build 0)  -->
<!DOCTYPE svg PUBLIC "-//W3C//DTD SVG 1.1//EN" "http://www.w3.org/Graphics/SVG/1.1/DTD/svg11.dtd">
<svg version="1.1" id="Calque_1" xmlns="http://www.w3.org/2000/svg" xmlns:xlink="http://www.w3.org/1999/xlink" x="0px" y="0px"
	 width="481.89px" height="481.89px" viewBox="0 0 481.89 481.89" enable-background="new 0 0 481.89 481.89" xml:space="preserve">
<path fill-rule="evenodd" clip-rule="evenodd" fill="#0A5EA3" d="M87.417,404.318c-16.581-13.149-30.148-29.024-41.644-46.675
	c-21.726-33.358-32.847-70.106-32.784-109.831c0.079-50.408,17.002-94.953,49.966-133.048
	c34.608-39.996,78.511-64.792,130.579-72.498c80.143-11.86,148.774,11.726,203.963,71.97c0.832,0.909,1.982,1.704,2.05,3.412
	c-2.25,0.772-3.465-1.137-4.836-2.096c-23.883-16.713-50.082-28.15-78.477-34.609C220.33,59.129,118.425,102.053,71.81,190.978
	c-17.999,34.334-25.15,70.971-21.838,109.697c3.176,37.147,15.815,70.678,37.401,100.95c0.366,0.513,0.607,1.114,0.907,1.674
	C87.992,403.639,87.705,403.978,87.417,404.318z"/>
<path fill-rule="evenodd" clip-rule="evenodd" fill="#6494B5" d="M316.484,377.474c-3.356,6.334-8.326,10.26-15.779,9.81
	c-7.183-0.435-11.132-5.128-13.662-11.327c-4.217-10.325-5.248-21.257-5.398-32.21c-0.663-48.585,3.255-96.889,9.396-145.042
	c1.098-8.608,2.201-17.216,3.334-26.078c-1.923,0.781-1.854,2.375-2.323,3.599c-19.587,51.069-39.205,102.126-58.622,153.259
	c-1.391,3.662-2.961,4.845-6.852,4.628c-9.653-0.539-9.734-0.317-10.571-10.116c-4.02-47.026-7.995-94.056-12-141.083
	c-0.26-3.047-0.646-6.082-1.087-10.187c-2.125,3.883-1.979,7.394-2.533,10.62c-6.598,38.394-13.213,76.783-25.302,113.944
	c-3.585,11.022-7.662,21.886-14.893,31.214c-1.798,2.319-3.769,4.469-6.323,5.896c-5.6,3.13-11.506,4.721-17.333,0.894
	c-6.096-4.006-8.041-10.172-7.669-17.212c0.089-1.701,0.427-3.25,2.581-3.423c10-0.805,15.731-7.393,20.345-15.281
	c7.314-12.505,11.068-26.357,14.639-40.227c9.083-35.271,14.727-71.234,21.312-107.007c0.524-2.849,0.905-5.732,1.58-8.544
	c0.771-3.209-0.389-4.568-3.556-5.466c-19.001-5.391-34.033,4.857-37.703,25.793c-2.492,14.212-1.922,28.256,2.376,42.027
	c1.096,3.513,0.016,4.989-3.03,6.217c-7.578,3.056-15.979-0.188-20.478-8.163c-3.074-5.451-4.213-11.488-4.665-17.606
	c-0.928-12.562,0.764-24.773,6.053-36.293c9.862-21.479,28.205-31.542,51.686-28.714c10.597,1.276,20.692,4.813,31.169,6.598
	c0.474,0.081,0.927,0.28,1.399,0.376c3.142,0.645,7.608-0.784,9.206,1.551c1.766,2.582,1.283,6.774,1.57,10.283
	c3.68,44.942,7.322,89.887,10.996,135.101c2.384-0.853,2.316-3.051,2.922-4.684c17.029-45.844,34.077-91.681,50.892-137.603
	c1.441-3.936,3.309-5.008,7.256-4.941c8.209,0.14,16.433-0.188,24.642-0.529c2.924-0.122,3.798,0.465,3.365,3.678
	c-2.789,20.748-5.337,41.528-7.964,62.299c-1.359,13.07-2.722,26.139-4.076,39.21c-0.857,8.276-1.701,16.554-2.551,24.831
	c-0.017,0.643-0.014,1.286-0.052,1.927c-1.662,27.584-3.265,55.178-0.052,82.752c1.262,10.823,2.599,21.707,8.688,31.226
	C317.106,374.802,316.795,376.138,316.484,377.474z"/>
<path opacity="0.7" fill-rule="evenodd" clip-rule="evenodd" fill="#6494B5" d="M316.484,377.474
	c0.311-1.336,0.622-2.672,0.933-4.007c3.921-2.776,6.535-6.617,8.733-10.783c2.868-5.438,4.785-11.255,6.677-17.074
	c13.532-41.647,26.968-83.325,40.632-124.93c3.291-10.019,8.408-19.116,15.791-26.867c1.666-1.75,5.741-2.28,4.878-4.923
	c-0.746-2.284-4.463-2.742-6.968-3.807c-0.737-0.313-1.528-0.503-2.299-0.741c-18.594-5.724-34.88-0.307-43.787,15.733
	c-9.097,16.378-12.431,34.145-8.719,52.746c0.76,3.808-0.311,5.117-3.54,6.339c-6.986,2.643-13.517,1.328-19.983-1.597
	c0.85-8.276,1.693-16.555,2.551-24.831c1.354-13.071,2.717-26.14,4.076-39.21c5.342-5.261,9.928-11.227,16.118-15.705
	c12.301-8.895,25.938-11.165,40.75-10.049c16.83,1.267,32.71,6.9,49.172,9.771c8.131,1.418,16.29,1.856,24.489,0.346
	c5.722-1.054,10.665-3.602,14.909-7.471c1.888-1.722,2.756-1.567,3.581,0.885c4.37,12.991-6.573,38.898-27.871,37.139
	c-8.77-0.724-16.619-3.646-23.972-8.122c-2.837-1.728-4.062-1.828-5.223,1.771c-15.755,48.853-31.647,97.661-47.511,146.478
	c-2.092,6.437-4.421,12.771-7.783,18.685c-7.846,13.804-20.039,17.427-34.217,10.158
	C317.537,377.22,316.961,377.443,316.484,377.474z"/>
<path opacity="0.7" fill-rule="evenodd" clip-rule="evenodd" fill="#0A5EA3" d="M392.112,349.532
	c-3.243,7.062-7.504,13.021-11.966,18.788c-30.894,39.923-71.528,63.704-121.139,71.987c-48.217,8.049-93.473-0.225-134.293-27.613
	c-39.484-26.494-63.09-63.576-68.18-111.126c-4.538-42.393,8.32-80.129,34.138-113.675c6.497-8.441,13.699-16.246,22.126-23.528
	c0.225,2.251-1.311,3.076-2.214,4.165c-24.612,29.688-39.08,63.462-37.794,102.351c1.809,54.711,28.886,94.791,75.384,122.062
	c32.609,19.124,68.242,26.061,105.868,23.432c44.869-3.136,84.419-19.162,118.547-48.489c5.512-4.735,10.53-9.973,15.443-15.317
	C389.039,351.471,389.576,349.734,392.112,349.532z M79.919,212.883c-1.456,0.79-1.871,0.869-1.982,1.098
	c-1.414,2.884-2.762,5.802-4.17,8.689c-13.428,27.53-17.184,56.749-12.515,86.602c5.717,36.542,23.669,66.694,52.195,90.409
	c29.498,24.523,63.87,36.768,101.72,39.567c19.022,1.407,37.949-0.577,56.513-5.089c30.918-7.516,58.404-21.783,82.39-42.693
	c3.202-2.791,6.595-5.599,9.12-9.713c-1.152-0.159-1.34-0.248-1.456-0.19c-0.563,0.278-1.145,0.542-1.651,0.906
	c-32.521,23.368-69.047,35.557-108.767,38.165c-21.824,1.434-43.392-1.211-64.406-7.401
	c-47.434-13.972-83.987-41.378-105.303-86.888c-12.587-26.873-15.736-55.147-10.323-84.335
	C73.067,232.395,75.581,222.968,79.919,212.883z M366.12,378.902c-0.058-0.117-0.09-0.297-0.181-0.335
	c-0.107-0.045-0.267,0.032-0.403,0.057c0.086,0.172,0.172,0.344,0.258,0.515C365.902,379.059,366.011,378.981,366.12,378.902z"/>
<path fill-rule="evenodd" clip-rule="evenodd" fill="#0A5EA3" d="M88.28,403.299c0.769,0.446,0.963,1.049,0.502,1.833
	c-0.455-0.272-0.91-0.544-1.365-0.814C87.705,403.978,87.992,403.639,88.28,403.299z"/>
<path opacity="0.7" fill-rule="evenodd" clip-rule="evenodd" fill="#0A5EA3" d="M79.919,212.883
	c-4.338,10.084-6.852,19.512-8.635,29.127c-5.413,29.188-2.264,57.462,10.323,84.335c21.315,45.51,57.869,72.916,105.303,86.888
	c21.014,6.19,42.582,8.835,64.406,7.401c39.72-2.608,76.246-14.797,108.767-38.165c0.507-0.364,1.089-0.628,1.651-0.906
	c0.116-0.058,0.304,0.031,1.456,0.19c-2.525,4.114-5.918,6.922-9.12,9.713c-23.985,20.91-51.472,35.178-82.39,42.693
	c-18.564,4.512-37.491,6.496-56.513,5.089c-37.85-2.8-72.222-15.044-101.72-39.567c-28.526-23.715-46.479-53.867-52.195-90.409
	c-4.669-29.853-0.913-59.071,12.515-86.602c1.408-2.887,2.756-5.805,4.17-8.689C78.048,213.752,78.463,213.673,79.919,212.883z"/>
<path fill-rule="evenodd" clip-rule="evenodd" fill="#707983" d="M366.12,378.902c-0.109,0.079-0.218,0.157-0.326,0.236
	c-0.086-0.171-0.172-0.343-0.258-0.515c0.137-0.024,0.296-0.102,0.403-0.057C366.03,378.605,366.063,378.785,366.12,378.902z"/>
</svg>
